# Made in Blockbench 3.3.1
mtllib club_wired.mtl
o club0
v 0.0625 -0.4375 0.0625
v 0.0625 -0.4375 -0.0625
v 0.0625 -0.5 0.0625
v 0.0625 -0.5 -0.0625
v -0.0625 -0.4375 -0.0625
v -0.0625 -0.4375 0.0625
v -0.0625 -0.5 -0.0625
v -0.0625 -0.5 0.0625
vt 0.25 1
vt 0.25 0.9375
vt 0.375 1
vt 0.25 0.9375
vt 0.375 0.9375
vt 0.375 1
vt 0 1
vt 0 0.9375
vt 0.125 1
vt 0 0.9375
vt 0.125 0.9375
vt 0.125 1
vt 0.125 0.9375
vt 0.125 0.8125
vt 0.25 0.9375
vt 0.125 0.8125
vt 0.25 0.8125
vt 0.25 0.9375
vt 0 0.9375
vt 0 0.8125
vt 0.125 0.9375
vt 0 0.8125
vt 0.125 0.8125
vt 0.125 0.9375
vt 0.125 1
vt 0.125 0.9375
vt 0.25 1
vt 0.125 0.9375
vt 0.25 0.9375
vt 0.25 1
vt 0.375 1
vt 0.375 0.9375
vt 0.5 1
vt 0.375 0.9375
vt 0.5 0.9375
vt 0.5 1
vn 1 0 0
vn 1 0 0
vn 1 0 0
vn 1 0 0
vn 1 0 0
vn 1 0 0
vn -1 0 0
vn -1 0 0
vn -1 0 0
vn -1 0 0
vn -1 0 0
vn -1 0 0
vn 0 1 0
vn 0 1 0
vn 0 1 0
vn 0 1 0
vn 0 1 0
vn 0 1 0
vn 0 -1 0
vn 0 -1 0
vn 0 -1 0
vn 0 -1 0
vn 0 -1 0
vn 0 -1 0
vn 0 0 1
vn 0 0 1
vn 0 0 1
vn 0 0 1
vn 0 0 1
vn 0 0 1
vn 0 0 -1
vn 0 0 -1
vn 0 0 -1
vn 0 0 -1
vn 0 0 -1
vn 0 0 -1
usemtl club_barbed_wire0
f 1/1/1 3/2/2 2/3/3
f 3/4/4 4/5/5 2/6/6
usemtl club_barbed_wire0
f 5/7/7 7/8/8 6/9/9
f 7/10/10 8/11/11 6/12/12
usemtl club_barbed_wire0
f 5/13/13 6/14/14 2/15/15
f 6/16/16 1/17/17 2/18/18
usemtl club_barbed_wire0
f 8/19/19 7/20/20 3/21/21
f 7/22/22 4/23/23 3/24/24
usemtl club_barbed_wire0
f 6/25/25 8/26/26 1/27/27
f 8/28/28 3/29/29 1/30/30
usemtl club_barbed_wire0
f 2/31/31 4/32/32 5/33/33
f 4/34/34 7/35/35 5/36/36
o club1
v 0.046875 0.390625 0.046875
v 0.046875 0.390625 -0.046875
v 0.046875 -0.1875 0.046875
v 0.046875 -0.1875 -0.046875
v -0.046875 0.390625 -0.046875
v -0.046875 0.390625 0.046875
v -0.046875 -0.1875 -0.046875
v -0.046875 -0.1875 0.046875
vt 0.8125 1
vt 0.8125 0.421875
vt 0.90625 1
vt 0.8125 0.421875
vt 0.90625 0.421875
vt 0.90625 1
vt 0.625 1
vt 0.625 0.421875
vt 0.71875 1
vt 0.625 0.421875
vt 0.71875 0.421875
vt 0.71875 1
vt 0 0.5625
vt 0 0.46875
vt 0.09375 0.5625
vt 0 0.46875
vt 0.09375 0.46875
vt 0.09375 0.5625
vt 0.09375 0.5625
vt 0.09375 0.46875
vt 0.1875 0.5625
vt 0.09375 0.46875
vt 0.1875 0.46875
vt 0.1875 0.5625
vt 0.71875 1
vt 0.71875 0.421875
vt 0.8125 1
vt 0.71875 0.421875
vt 0.8125 0.421875
vt 0.8125 1
vt 0.90625 1
vt 0.90625 0.421875
vt 1 1
vt 0.90625 0.421875
vt 1 0.421875
vt 1 1
vn 1 0 0
vn 1 0 0
vn 1 0 0
vn 1 0 0
vn 1 0 0
vn 1 0 0
vn -1 0 0
vn -1 0 0
vn -1 0 0
vn -1 0 0
vn -1 0 0
vn -1 0 0
vn 0 1 0
vn 0 1 0
vn 0 1 0
vn 0 1 0
vn 0 1 0
vn 0 1 0
vn 0 -1 0
vn 0 -1 0
vn 0 -1 0
vn 0 -1 0
vn 0 -1 0
vn 0 -1 0
vn 0 0 1
vn 0 0 1
vn 0 0 1
vn 0 0 1
vn 0 0 1
vn 0 0 1
vn 0 0 -1
vn 0 0 -1
vn 0 0 -1
vn 0 0 -1
vn 0 0 -1
vn 0 0 -1
usemtl club_barbed_wire0
f 9/37/37 11/38/38 10/39/39
f 11/40/40 12/41/41 10/42/42
usemtl club_barbed_wire0
f 13/43/43 15/44/44 14/45/45
f 15/46/46 16/47/47 14/48/48
usemtl club_barbed_wire0
f 13/49/49 14/50/50 10/51/51
f 14/52/52 9/53/53 10/54/54
usemtl club_barbed_wire0
f 16/55/55 15/56/56 11/57/57
f 15/58/58 12/59/59 11/60/60
usemtl club_barbed_wire0
f 14/61/61 16/62/62 9/63/63
f 16/64/64 11/65/65 9/66/66
usemtl club_barbed_wire0
f 10/67/67 12/68/68 13/69/69
f 12/70/70 15/71/71 13/72/72
o club2
v 0.03125 -0.1875 0.03125
v 0.03125 -0.1875 -0.03125
v 0.03125 -0.4375 0.03125
v 0.03125 -0.4375 -0.03125
v -0.03125 -0.1875 -0.03125
v -0.03125 -0.1875 0.03125
v -0.03125 -0.4375 -0.03125
v -0.03125 -0.4375 0.03125
vt 0.1875 0.8125
vt 0.1875 0.5625
vt 0.25 0.8125
vt 0.1875 0.5625
vt 0.25 0.5625
vt 0.25 0.8125
vt 0.0625 0.8125
vt 0.0625 0.5625
vt 0.125 0.8125
vt 0.0625 0.5625
vt 0.125 0.5625
vt 0.125 0.8125
vt 0 1
vt 0 1
vt 0 1
vt 0 1
vt 0 1
vt 0 1
vt 0 1
vt 0 1
vt 0 1
vt 0 1
vt 0 1
vt 0 1
vt 0.125 0.8125
vt 0.125 0.5625
vt 0.1875 0.8125
vt 0.125 0.5625
vt 0.1875 0.5625
vt 0.1875 0.8125
vt 0 0.8125
vt 0 0.5625
vt 0.0625 0.8125
vt 0 0.5625
vt 0.0625 0.5625
vt 0.0625 0.8125
vn 1 0 0
vn 1 0 0
vn 1 0 0
vn 1 0 0
vn 1 0 0
vn 1 0 0
vn -1 0 0
vn -1 0 0
vn -1 0 0
vn -1 0 0
vn -1 0 0
vn -1 0 0
vn 0 1 0
vn 0 1 0
vn 0 1 0
vn 0 1 0
vn 0 1 0
vn 0 1 0
vn 0 -1 0
vn 0 -1 0
vn 0 -1 0
vn 0 -1 0
vn 0 -1 0
vn 0 -1 0
vn 0 0 1
vn 0 0 1
vn 0 0 1
vn 0 0 1
vn 0 0 1
vn 0 0 1
vn 0 0 -1
vn 0 0 -1
vn 0 0 -1
vn 0 0 -1
vn 0 0 -1
vn 0 0 -1
usemtl club_barbed_wire0
f 17/73/73 19/74/74 18/75/75
f 19/76/76 20/77/77 18/78/78
usemtl club_barbed_wire0
f 21/79/79 23/80/80 22/81/81
f 23/82/82 24/83/83 22/84/84
usemtl club_barbed_wire0
f 22/97/97 24/98/98 17/99/99
f 24/100/100 19/101/101 17/102/102
usemtl club_barbed_wire0
f 18/103/103 20/104/104 21/105/105
f 20/106/106 23/107/107 21/108/108
o barbed_wire0
v -0.06243749999999998 0.390625 0.0625
v -0.06243749999999998 0.390625 -0.0625
v -0.06243749999999998 -0.171875 0.0625
v -0.06243749999999998 -0.171875 -0.0625
v -0.0625 0.390625 -0.0625
v -0.0625 0.390625 0.0625
v -0.0625 -0.171875 -0.0625
v -0.0625 -0.171875 0.0625
vt 0.25 0.9375
vt 0.25 0.375
vt 0.375 0.9375
vt 0.25 0.375
vt 0.375 0.375
vt 0.375 0.9375
vt 0.375 0.9375
vt 0.375 0.375
vt 0.5 0.9375
vt 0.375 0.375
vt 0.5 0.375
vt 0.5 0.9375
vt 0 1
vt 0 1
vt 0 1
vt 0 1
vt 0 1
vt 0 1
vt 0 1
vt 0 1
vt 0 1
vt 0 1
vt 0 1
vt 0 1
vt 0 1
vt 0 1
vt 0 1
vt 0 1
vt 0 1
vt 0 1
vt 0 1
vt 0 1
vt 0 1
vt 0 1
vt 0 1
vt 0 1
vn 1 0 0
vn 1 0 0
vn 1 0 0
vn 1 0 0
vn 1 0 0
vn 1 0 0
vn -1 0 0
vn -1 0 0
vn -1 0 0
vn -1 0 0
vn -1 0 0
vn -1 0 0
vn 0 1 0
vn 0 1 0
vn 0 1 0
vn 0 1 0
vn 0 1 0
vn 0 1 0
vn 0 -1 0
vn 0 -1 0
vn 0 -1 0
vn 0 -1 0
vn 0 -1 0
vn 0 -1 0
vn 0 0 1
vn 0 0 1
vn 0 0 1
vn 0 0 1
vn 0 0 1
vn 0 0 1
vn 0 0 -1
vn 0 0 -1
vn 0 0 -1
vn 0 0 -1
vn 0 0 -1
vn 0 0 -1
usemtl club_barbed_wire0
f 25/109/109 27/110/110 26/111/111
f 27/112/112 28/113/113 26/114/114
usemtl club_barbed_wire0
f 29/115/115 31/116/116 30/117/117
f 31/118/118 32/119/119 30/120/120
o barbed_wire1
v 0.0625 0.390625 0.06256249999999997
v 0.0625 0.390625 0.0625
v 0.0625 -0.171875 0.06256249999999997
v 0.0625 -0.171875 0.0625
v -0.0625 0.390625 0.0625
v -0.0625 0.390625 0.06256249999999997
v -0.0625 -0.171875 0.0625
v -0.0625 -0.171875 0.06256249999999997
vt 0 1
vt 0 1
vt 0 1
vt 0 1
vt 0 1
vt 0 1
vt 0 1
vt 0 1
vt 0 1
vt 0 1
vt 0 1
vt 0 1
vt 0 1
vt 0 1
vt 0 1
vt 0 1
vt 0 1
vt 0 1
vt 0 1
vt 0 1
vt 0 1
vt 0 1
vt 0 1
vt 0 1
vt 0.5 0.375
vt 0.5 0.9375
vt 0.375 0.375
vt 0.5 0.9375
vt 0.375 0.9375
vt 0.375 0.375
vt 0.375 0.375
vt 0.375 0.9375
vt 0.25 0.375
vt 0.375 0.9375
vt 0.25 0.9375
vt 0.25 0.375
vn 1 0 0
vn 1 0 0
vn 1 0 0
vn 1 0 0
vn 1 0 0
vn 1 0 0
vn -1 0 0
vn -1 0 0
vn -1 0 0
vn -1 0 0
vn -1 0 0
vn -1 0 0
vn 0 1 0
vn 0 1 0
vn 0 1 0
vn 0 1 0
vn 0 1 0
vn 0 1 0
vn 0 -1 0
vn 0 -1 0
vn 0 -1 0
vn 0 -1 0
vn 0 -1 0
vn 0 -1 0
vn 0 0 1
vn 0 0 1
vn 0 0 1
vn 0 0 1
vn 0 0 1
vn 0 0 1
vn 0 0 -1
vn 0 0 -1
vn 0 0 -1
vn 0 0 -1
vn 0 0 -1
vn 0 0 -1
usemtl club_barbed_wire0
f 38/169/169 40/170/170 33/171/171
f 40/172/172 35/173/173 33/174/174
usemtl club_barbed_wire0
f 34/175/175 36/176/176 37/177/177
f 36/178/178 39/179/179 37/180/180
o barbed_wire2
v 0.06256249999999997 0.390625 0.0625
v 0.06256249999999997 0.390625 -0.0625
v 0.06256249999999997 -0.171875 0.0625
v 0.06256249999999997 -0.171875 -0.0625
v 0.0625 0.390625 -0.0625
v 0.0625 0.390625 0.0625
v 0.0625 -0.171875 -0.0625
v 0.0625 -0.171875 0.0625
vt 0.375 0.9375
vt 0.375 0.375
vt 0.5 0.9375
vt 0.375 0.375
vt 0.5 0.375
vt 0.5 0.9375
vt 0.25 0.9375
vt 0.25 0.375
vt 0.375 0.9375
vt 0.25 0.375
vt 0.375 0.375
vt 0.375 0.9375
vt 0 1
vt 0 1
vt 0 1
vt 0 1
vt 0 1
vt 0 1
vt 0 1
vt 0 1
vt 0 1
vt 0 1
vt 0 1
vt 0 1
vt 0 1
vt 0 1
vt 0 1
vt 0 1
vt 0 1
vt 0 1
vt 0 1
vt 0 1
vt 0 1
vt 0 1
vt 0 1
vt 0 1
vn 1 0 0
vn 1 0 0
vn 1 0 0
vn 1 0 0
vn 1 0 0
vn 1 0 0
vn -1 0 0
vn -1 0 0
vn -1 0 0
vn -1 0 0
vn -1 0 0
vn -1 0 0
vn 0 1 0
vn 0 1 0
vn 0 1 0
vn 0 1 0
vn 0 1 0
vn 0 1 0
vn 0 -1 0
vn 0 -1 0
vn 0 -1 0
vn 0 -1 0
vn 0 -1 0
vn 0 -1 0
vn 0 0 1
vn 0 0 1
vn 0 0 1
vn 0 0 1
vn 0 0 1
vn 0 0 1
vn 0 0 -1
vn 0 0 -1
vn 0 0 -1
vn 0 0 -1
vn 0 0 -1
vn 0 0 -1
usemtl club_barbed_wire0
f 41/181/181 43/182/182 42/183/183
f 43/184/184 44/185/185 42/186/186
usemtl club_barbed_wire0
f 45/187/187 47/188/188 46/189/189
f 47/190/190 48/191/191 46/192/192
o barbed_wire3
v 0.0625 0.390625 -0.06243749999999998
v 0.0625 0.390625 -0.0625
v 0.0625 -0.171875 -0.06243749999999998
v 0.0625 -0.171875 -0.0625
v -0.0625 0.390625 -0.0625
v -0.0625 0.390625 -0.06243749999999998
v -0.0625 -0.171875 -0.0625
v -0.0625 -0.171875 -0.06243749999999998
vt 0 1
vt 0 1
vt 0 1
vt 0 1
vt 0 1
vt 0 1
vt 0 1
vt 0 1
vt 0 1
vt 0 1
vt 0 1
vt 0 1
vt 0 1
vt 0 1
vt 0 1
vt 0 1
vt 0 1
vt 0 1
vt 0 1
vt 0 1
vt 0 1
vt 0 1
vt 0 1
vt 0 1
vt 0.375 0.375
vt 0.375 0.9375
vt 0.25 0.375
vt 0.375 0.9375
vt 0.25 0.9375
vt 0.25 0.375
vt 0.5 0.375
vt 0.5 0.9375
vt 0.375 0.375
vt 0.5 0.9375
vt 0.375 0.9375
vt 0.375 0.375
vn 1 0 0
vn 1 0 0
vn 1 0 0
vn 1 0 0
vn 1 0 0
vn 1 0 0
vn -1 0 0
vn -1 0 0
vn -1 0 0
vn -1 0 0
vn -1 0 0
vn -1 0 0
vn 0 1 0
vn 0 1 0
vn 0 1 0
vn 0 1 0
vn 0 1 0
vn 0 1 0
vn 0 -1 0
vn 0 -1 0
vn 0 -1 0
vn 0 -1 0
vn 0 -1 0
vn 0 -1 0
vn 0 0 1
vn 0 0 1
vn 0 0 1
vn 0 0 1
vn 0 0 1
vn 0 0 1
vn 0 0 -1
vn 0 0 -1
vn 0 0 -1
vn 0 0 -1
vn 0 0 -1
vn 0 0 -1
usemtl club_barbed_wire0
f 54/241/241 56/242/242 49/243/243
f 56/244/244 51/245/245 49/246/246
usemtl club_barbed_wire0
f 50/247/247 52/248/248 53/249/249
f 52/250/250 55/251/251 53/252/252
